<svg width="99" height="26" viewBox="0 0 99 26" fill="none" xmlns="http://www.w3.org/2000/svg">
<path d="M6.17614 25.1818V3.36364H7.57386V25.1818H6.17614ZM10.2074 10.3438C10.1278 9.59943 9.79261 9.01989 9.2017 8.60511C8.61648 8.19034 7.85511 7.98295 6.91761 7.98295C6.25852 7.98295 5.69318 8.08239 5.22159 8.28125C4.75 8.48011 4.3892 8.75 4.1392 9.09091C3.8892 9.43182 3.76136 9.82102 3.75568 10.2585C3.75568 10.6222 3.83807 10.9375 4.00284 11.2045C4.1733 11.4716 4.40341 11.6989 4.69318 11.8864C4.98295 12.0682 5.30398 12.2216 5.65625 12.3466C6.00852 12.4716 6.36364 12.5767 6.72159 12.6619L8.35795 13.071C9.01705 13.2244 9.65057 13.4318 10.2585 13.6932C10.8722 13.9545 11.4205 14.2841 11.9034 14.6818C12.392 15.0795 12.7784 15.5597 13.0625 16.1222C13.3466 16.6847 13.4886 17.3437 13.4886 18.0994C13.4886 19.1222 13.2273 20.0227 12.7045 20.8011C12.1818 21.5739 11.4261 22.179 10.4375 22.6165C9.45455 23.0483 8.2642 23.2642 6.86648 23.2642C5.50852 23.2642 4.32955 23.054 3.32955 22.6335C2.33523 22.2131 1.55682 21.5994 0.994318 20.7926C0.4375 19.9858 0.136364 19.0028 0.0909091 17.8438H3.2017C3.24716 18.4517 3.43466 18.9574 3.7642 19.3608C4.09375 19.7642 4.52273 20.0653 5.05114 20.2642C5.58523 20.4631 6.18182 20.5625 6.84091 20.5625C7.52841 20.5625 8.13068 20.4602 8.64773 20.2557C9.17045 20.0455 9.57955 19.7557 9.875 19.3864C10.1705 19.0114 10.321 18.5739 10.3267 18.0739C10.321 17.6193 10.1875 17.2443 9.92614 16.9489C9.66477 16.6477 9.2983 16.3977 8.8267 16.1989C8.3608 15.9943 7.81534 15.8125 7.19034 15.6534L5.20455 15.142C3.76705 14.7727 2.63068 14.2131 1.79545 13.4631C0.965909 12.7074 0.551136 11.7045 0.551136 10.4545C0.551136 9.42614 0.829546 8.52557 1.38636 7.75284C1.94886 6.98011 2.71307 6.38068 3.67898 5.95454C4.64489 5.52273 5.73864 5.30682 6.96023 5.30682C8.19886 5.30682 9.28409 5.52273 10.2159 5.95454C11.1534 6.38068 11.8892 6.97443 12.4233 7.73579C12.9574 8.49148 13.233 9.3608 13.25 10.3438H10.2074Z" fill="#FF6868"/>
<path d="M16.5249 23V20.1449L24.0994 12.7195C24.8239 11.9879 25.4276 11.3381 25.9105 10.7699C26.3935 10.2017 26.7557 9.65128 26.9972 9.11861C27.2386 8.58594 27.3594 8.01776 27.3594 7.41406C27.3594 6.72514 27.2031 6.13565 26.8906 5.6456C26.5781 5.14844 26.1484 4.76491 25.6016 4.49503C25.0547 4.22514 24.4332 4.0902 23.7372 4.0902C23.0199 4.0902 22.3913 4.23935 21.8516 4.53764C21.3118 4.82883 20.8928 5.24432 20.5945 5.78409C20.3033 6.32386 20.1577 6.96662 20.1577 7.71236H16.397C16.397 6.32741 16.7131 5.12358 17.3452 4.10085C17.9773 3.07812 18.8473 2.28622 19.9553 1.72514C21.0703 1.16406 22.3487 0.883522 23.7905 0.883522C25.2536 0.883522 26.5391 1.15696 27.647 1.70383C28.755 2.25071 29.6143 3 30.2251 3.9517C30.843 4.90341 31.152 5.99006 31.152 7.21165C31.152 8.02841 30.9957 8.83097 30.6832 9.61932C30.3707 10.4077 29.8203 11.2812 29.032 12.2401C28.2507 13.1989 27.1534 14.3601 25.7401 15.7237L21.9794 19.5483V19.6974H31.4822V23H16.5249ZM34.2947 18.9517V15.8089L43.5526 1.18182H46.1733V5.65625H44.5753L38.343 15.532V15.7024H51.2656V18.9517H34.2947ZM44.7031 23V17.9929L44.7457 16.5866V1.18182H48.4744V23H44.7031ZM56.4725 23.2344C55.8262 23.2344 55.2722 23.0071 54.8105 22.5526C54.3489 22.098 54.1216 21.544 54.1287 20.8906C54.1216 20.2514 54.3489 19.7045 54.8105 19.25C55.2722 18.7955 55.8262 18.5682 56.4725 18.5682C57.0975 18.5682 57.6408 18.7955 58.1025 19.25C58.5712 19.7045 58.8091 20.2514 58.8162 20.8906C58.8091 21.3239 58.6955 21.718 58.4753 22.0732C58.2623 22.4283 57.9782 22.7124 57.623 22.9254C57.275 23.1314 56.8915 23.2344 56.4725 23.2344ZM69.9703 23.4155C68.2161 23.4155 66.7104 22.9716 65.4533 22.0838C64.2033 21.1889 63.2409 19.8999 62.5662 18.2166C61.8986 16.5263 61.5648 14.4915 61.5648 12.1122C61.5719 9.73295 61.9093 7.70881 62.5769 6.03977C63.2516 4.36364 64.214 3.08523 65.464 2.20455C66.7211 1.32386 68.2232 0.883522 69.9703 0.883522C71.7175 0.883522 73.2196 1.32386 74.4767 2.20455C75.7338 3.08523 76.6962 4.36364 77.3638 6.03977C78.0385 7.71591 78.3759 9.74006 78.3759 12.1122C78.3759 14.4986 78.0385 16.5369 77.3638 18.2273C76.6962 19.9105 75.7338 21.196 74.4767 22.0838C73.2267 22.9716 71.7246 23.4155 69.9703 23.4155ZM69.9703 20.081C71.334 20.081 72.41 19.4098 73.1983 18.0675C73.9938 16.718 74.3915 14.733 74.3915 12.1122C74.3915 10.3793 74.2104 8.9233 73.8482 7.74432C73.486 6.56534 72.9746 5.67756 72.3141 5.08097C71.6536 4.47727 70.8723 4.17543 69.9703 4.17543C68.6138 4.17543 67.5414 4.85014 66.753 6.19957C65.9647 7.5419 65.5669 9.51278 65.5598 12.1122C65.5527 13.8523 65.7267 15.3153 66.0819 16.5014C66.4441 17.6875 66.9554 18.5824 67.6159 19.1861C68.2765 19.7827 69.0613 20.081 69.9703 20.081ZM89.9801 23.4155C88.2259 23.4155 86.7202 22.9716 85.4631 22.0838C84.2131 21.1889 83.2507 19.8999 82.576 18.2166C81.9084 16.5263 81.5746 14.4915 81.5746 12.1122C81.5817 9.73295 81.919 7.70881 82.5866 6.03977C83.2614 4.36364 84.2237 3.08523 85.4737 2.20455C86.7308 1.32386 88.233 0.883522 89.9801 0.883522C91.7273 0.883522 93.2294 1.32386 94.4865 2.20455C95.7436 3.08523 96.706 4.36364 97.3736 6.03977C98.0483 7.71591 98.3857 9.74006 98.3857 12.1122C98.3857 14.4986 98.0483 16.5369 97.3736 18.2273C96.706 19.9105 95.7436 21.196 94.4865 22.0838C93.2365 22.9716 91.7344 23.4155 89.9801 23.4155ZM89.9801 20.081C91.3438 20.081 92.4197 19.4098 93.2081 18.0675C94.0036 16.718 94.4013 14.733 94.4013 12.1122C94.4013 10.3793 94.2202 8.9233 93.858 7.74432C93.4957 6.56534 92.9844 5.67756 92.3239 5.08097C91.6634 4.47727 90.8821 4.17543 89.9801 4.17543C88.6236 4.17543 87.5511 4.85014 86.7628 6.19957C85.9744 7.5419 85.5767 9.51278 85.5696 12.1122C85.5625 13.8523 85.7365 15.3153 86.0916 16.5014C86.4538 17.6875 86.9652 18.5824 87.6257 19.1861C88.2862 19.7827 89.071 20.081 89.9801 20.081Z" fill="black"/>
</svg>
