<svg width="99" height="26" viewBox="0 0 99 26" fill="none" xmlns="http://www.w3.org/2000/svg">
<path d="M6.17614 25.1818V3.36364H7.57386V25.1818H6.17614ZM10.2074 10.3438C10.1278 9.59943 9.79261 9.01989 9.2017 8.60511C8.61648 8.19034 7.85511 7.98295 6.91761 7.98295C6.25852 7.98295 5.69318 8.08239 5.22159 8.28125C4.75 8.48011 4.3892 8.75 4.1392 9.09091C3.8892 9.43182 3.76136 9.82102 3.75568 10.2585C3.75568 10.6222 3.83807 10.9375 4.00284 11.2045C4.1733 11.4716 4.40341 11.6989 4.69318 11.8864C4.98295 12.0682 5.30398 12.2216 5.65625 12.3466C6.00852 12.4716 6.36364 12.5767 6.72159 12.6619L8.35795 13.071C9.01705 13.2244 9.65057 13.4318 10.2585 13.6932C10.8722 13.9545 11.4205 14.2841 11.9034 14.6818C12.392 15.0795 12.7784 15.5597 13.0625 16.1222C13.3466 16.6847 13.4886 17.3437 13.4886 18.0994C13.4886 19.1222 13.2273 20.0227 12.7045 20.8011C12.1818 21.5739 11.4261 22.179 10.4375 22.6165C9.45455 23.0483 8.2642 23.2642 6.86648 23.2642C5.50852 23.2642 4.32955 23.054 3.32955 22.6335C2.33523 22.2131 1.55682 21.5994 0.994318 20.7926C0.4375 19.9858 0.136364 19.0028 0.0909091 17.8438H3.2017C3.24716 18.4517 3.43466 18.9574 3.7642 19.3608C4.09375 19.7642 4.52273 20.0653 5.05114 20.2642C5.58523 20.4631 6.18182 20.5625 6.84091 20.5625C7.52841 20.5625 8.13068 20.4602 8.64773 20.2557C9.17045 20.0455 9.57955 19.7557 9.875 19.3864C10.1705 19.0114 10.321 18.5739 10.3267 18.0739C10.321 17.6193 10.1875 17.2443 9.92614 16.9489C9.66477 16.6477 9.2983 16.3977 8.8267 16.1989C8.3608 15.9943 7.81534 15.8125 7.19034 15.6534L5.20455 15.142C3.76705 14.7727 2.63068 14.2131 1.79545 13.4631C0.965909 12.7074 0.551136 11.7045 0.551136 10.4545C0.551136 9.42614 0.829546 8.52557 1.38636 7.75284C1.94886 6.98011 2.71307 6.38068 3.67898 5.95454C4.64489 5.52273 5.73864 5.30682 6.96023 5.30682C8.19886 5.30682 9.28409 5.52273 10.2159 5.95454C11.1534 6.38068 11.8892 6.97443 12.4233 7.73579C12.9574 8.49148 13.233 9.3608 13.25 10.3438H10.2074Z" fill="#FF6868"/>
<path d="M16.5249 23V20.1449L24.0994 12.7195C24.8239 11.9879 25.4276 11.3381 25.9105 10.7699C26.3935 10.2017 26.7557 9.65128 26.9972 9.11861C27.2386 8.58594 27.3594 8.01776 27.3594 7.41406C27.3594 6.72514 27.2031 6.13565 26.8906 5.6456C26.5781 5.14844 26.1484 4.76491 25.6016 4.49503C25.0547 4.22514 24.4332 4.0902 23.7372 4.0902C23.0199 4.0902 22.3913 4.23935 21.8516 4.53764C21.3118 4.82883 20.8928 5.24432 20.5945 5.78409C20.3033 6.32386 20.1577 6.96662 20.1577 7.71236H16.397C16.397 6.32741 16.7131 5.12358 17.3452 4.10085C17.9773 3.07812 18.8473 2.28622 19.9553 1.72514C21.0703 1.16406 22.3487 0.883522 23.7905 0.883522C25.2536 0.883522 26.5391 1.15696 27.647 1.70383C28.755 2.25071 29.6143 3 30.2251 3.9517C30.843 4.90341 31.152 5.99006 31.152 7.21165C31.152 8.02841 30.9957 8.83097 30.6832 9.61932C30.3707 10.4077 29.8203 11.2812 29.032 12.2401C28.2507 13.1989 27.1534 14.3601 25.7401 15.7237L21.9794 19.5483V19.6974H31.4822V23H16.5249ZM43.1477 23.2983C42.1037 23.2912 41.0845 23.1101 40.0902 22.755C39.0959 22.3928 38.201 21.8068 37.4055 20.9972C36.6101 20.1804 35.978 19.0973 35.5092 17.7479C35.0405 16.3913 34.8097 14.7116 34.8168 12.7088C34.8168 10.8409 35.0156 9.17543 35.4134 7.71236C35.8111 6.24929 36.3828 5.01349 37.1286 4.00497C37.8743 2.98935 38.7727 2.2152 39.8239 1.68253C40.8821 1.14986 42.0646 0.883522 43.3714 0.883522C44.7422 0.883522 45.9567 1.15341 47.0149 1.69318C48.0803 2.23295 48.9396 2.97159 49.593 3.90909C50.2464 4.83949 50.6513 5.89062 50.8075 7.0625H46.919C46.7202 6.22443 46.3118 5.55682 45.6939 5.05966C45.0831 4.5554 44.3089 4.30327 43.3714 4.30327C41.8587 4.30327 40.6939 4.96023 39.8771 6.27415C39.0675 7.58807 38.6591 9.39205 38.652 11.6861H38.8011C39.1491 11.0611 39.6001 10.5249 40.1541 10.0774C40.7081 9.62997 41.3331 9.28551 42.0291 9.04403C42.7322 8.79545 43.4744 8.67116 44.2557 8.67116C45.5341 8.67116 46.6811 8.97656 47.6967 9.58736C48.7195 10.1982 49.5291 11.0398 50.1257 12.1122C50.7223 13.1776 51.017 14.3991 51.0099 15.777C51.017 17.2116 50.6903 18.5007 50.0298 19.6442C49.3693 20.7805 48.4496 21.6754 47.2706 22.3288C46.0916 22.9822 44.7173 23.3054 43.1477 23.2983ZM43.1264 20.1023C43.9006 20.1023 44.593 19.9141 45.2038 19.5376C45.8146 19.1612 46.2976 18.6534 46.6527 18.0142C47.0078 17.375 47.1818 16.6577 47.1747 15.8622C47.1818 15.081 47.0114 14.3743 46.6634 13.7422C46.3224 13.1101 45.8501 12.6094 45.2464 12.2401C44.6428 11.8707 43.9538 11.6861 43.1797 11.6861C42.6044 11.6861 42.0682 11.7962 41.571 12.0163C41.0739 12.2365 40.6406 12.5419 40.2713 12.9325C39.902 13.3161 39.6108 13.7635 39.3977 14.2749C39.1918 14.7791 39.0852 15.3189 39.0781 15.8942C39.0852 16.6541 39.2628 17.3537 39.6108 17.9929C39.9588 18.6321 40.4382 19.1435 41.049 19.527C41.6598 19.9105 42.3523 20.1023 43.1264 20.1023ZM56.0916 23.2344C55.4453 23.2344 54.8913 23.0071 54.4297 22.5526C53.968 22.098 53.7408 21.544 53.7479 20.8906C53.7408 20.2514 53.968 19.7045 54.4297 19.25C54.8913 18.7955 55.4453 18.5682 56.0916 18.5682C56.7166 18.5682 57.2599 18.7955 57.7216 19.25C58.1903 19.7045 58.4283 20.2514 58.4354 20.8906C58.4283 21.3239 58.3146 21.718 58.0945 22.0732C57.8814 22.4283 57.5973 22.7124 57.2422 22.9254C56.8942 23.1314 56.5107 23.2344 56.0916 23.2344ZM69.5895 23.4155C67.8352 23.4155 66.3295 22.9716 65.0724 22.0838C63.8224 21.1889 62.8601 19.8999 62.1854 18.2166C61.5178 16.5263 61.1839 14.4915 61.1839 12.1122C61.1911 9.73295 61.5284 7.70881 62.196 6.03977C62.8707 4.36364 63.8331 3.08523 65.0831 2.20455C66.3402 1.32386 67.8423 0.883522 69.5895 0.883522C71.3366 0.883522 72.8388 1.32386 74.0959 2.20455C75.353 3.08523 76.3153 4.36364 76.983 6.03977C77.6577 7.71591 77.995 9.74006 77.995 12.1122C77.995 14.4986 77.6577 16.5369 76.983 18.2273C76.3153 19.9105 75.353 21.196 74.0959 22.0838C72.8459 22.9716 71.3438 23.4155 69.5895 23.4155ZM69.5895 20.081C70.9531 20.081 72.0291 19.4098 72.8175 18.0675C73.6129 16.718 74.0107 14.733 74.0107 12.1122C74.0107 10.3793 73.8295 8.9233 73.4673 7.74432C73.1051 6.56534 72.5938 5.67756 71.9332 5.08097C71.2727 4.47727 70.4915 4.17543 69.5895 4.17543C68.233 4.17543 67.1605 4.85014 66.3722 6.19957C65.5838 7.5419 65.1861 9.51278 65.179 12.1122C65.1719 13.8523 65.3459 15.3153 65.701 16.5014C66.0632 17.6875 66.5746 18.5824 67.2351 19.1861C67.8956 19.7827 68.6804 20.081 69.5895 20.081ZM89.5993 23.4155C87.845 23.4155 86.3393 22.9716 85.0822 22.0838C83.8322 21.1889 82.8699 19.8999 82.1951 18.2166C81.5275 16.5263 81.1937 14.4915 81.1937 12.1122C81.2008 9.73295 81.5382 7.70881 82.2058 6.03977C82.8805 4.36364 83.8429 3.08523 85.0929 2.20455C86.35 1.32386 87.8521 0.883522 89.5993 0.883522C91.3464 0.883522 92.8485 1.32386 94.1056 2.20455C95.3627 3.08523 96.3251 4.36364 96.9927 6.03977C97.6674 7.71591 98.0048 9.74006 98.0048 12.1122C98.0048 14.4986 97.6674 16.5369 96.9927 18.2273C96.3251 19.9105 95.3627 21.196 94.1056 22.0838C92.8556 22.9716 91.3535 23.4155 89.5993 23.4155ZM89.5993 20.081C90.9629 20.081 92.0389 19.4098 92.8272 18.0675C93.6227 16.718 94.0204 14.733 94.0204 12.1122C94.0204 10.3793 93.8393 8.9233 93.4771 7.74432C93.1149 6.56534 92.6035 5.67756 91.943 5.08097C91.2825 4.47727 90.5012 4.17543 89.5993 4.17543C88.2427 4.17543 87.1703 4.85014 86.3819 6.19957C85.5936 7.5419 85.1958 9.51278 85.1887 12.1122C85.1816 13.8523 85.3556 15.3153 85.7108 16.5014C86.073 17.6875 86.5843 18.5824 87.2449 19.1861C87.9054 19.7827 88.6902 20.081 89.5993 20.081Z" fill="black"/>
</svg>
