<svg width="30" height="25" viewBox="0 0 30 25" fill="none" xmlns="http://www.w3.org/2000/svg">
<path d="M28 2.01189C28 2.01189 25.6152 3.42075 24.2891 3.82007C23.5773 3.00167 22.6314 2.42161 21.5792 2.15834C20.527 1.89508 19.4194 1.96129 18.4061 2.34806C17.3928 2.73482 16.5227 3.42345 15.9135 4.32082C15.3043 5.2182 14.9855 6.28101 15 7.36552V8.54734C12.9231 8.60119 10.8651 8.14057 9.00937 7.2065C7.1536 6.27243 5.55765 4.89391 4.36364 3.19371C4.36364 3.19371 -0.363636 13.8301 10.2727 18.5574C7.83881 20.2095 4.93937 21.0379 2 20.921C12.6364 26.8301 25.6364 20.921 25.6364 7.33007C25.6353 7.00087 25.6036 6.67249 25.5418 6.34916C26.748 5.15965 28 2.01189 28 2.01189Z" stroke="#484848" stroke-width="2.5" stroke-linecap="round" stroke-linejoin="round"/>
</svg>
