<svg width="31" height="23" viewBox="0 0 31 23" fill="none" xmlns="http://www.w3.org/2000/svg">
<path d="M18.2 11.5855L13.475 14.2855V8.8855L18.2 11.5855Z" fill="#484848" stroke="#484848" stroke-width="2.5" stroke-linecap="round" stroke-linejoin="round"/>
<path d="M2 12.5403V10.6299C2 6.72115 2 4.76681 3.22241 3.50933C4.44484 2.25184 6.36936 2.19741 10.2184 2.08855C12.0423 2.03696 13.9054 2 15.5 2C17.0946 2 18.9578 2.03696 20.7816 2.08855C24.6306 2.19741 26.5551 2.25184 27.7776 3.50933C29 4.76681 29 6.72115 29 10.6299V12.5403C29 16.4489 29 18.4033 27.7776 19.6607C26.5551 20.9182 24.6307 20.9726 20.7817 21.0816C18.9578 21.1331 17.0946 21.1701 15.5 21.1701C13.9054 21.1701 12.0422 21.1331 10.2183 21.0816C6.36929 20.9726 4.44481 20.9182 3.2224 19.6607C2 18.4033 2 16.4489 2 12.5403Z" stroke="#484848" stroke-width="2.5"/>
</svg>
