<svg width="26" height="26" viewBox="0 0 26 26" fill="none" xmlns="http://www.w3.org/2000/svg">
<path d="M13 17.8891C15.7 17.8891 17.8889 15.7002 17.8889 13.0002C17.8889 10.3002 15.7 8.11133 13 8.11133C10.3 8.11133 8.11115 10.3002 8.11115 13.0002C8.11115 15.7002 10.3 17.8891 13 17.8891Z" stroke="#484848" stroke-width="2.5" stroke-linecap="round" stroke-linejoin="round"/>
<path d="M2 17.8889V8.11111C2 4.73604 4.73604 2 8.11111 2H17.8889C21.2639 2 24 4.73604 24 8.11111V17.8889C24 21.2639 21.2639 24 17.8889 24H8.11111C4.73604 24 2 21.2639 2 17.8889Z" stroke="#484848" stroke-width="2.5"/>
<path d="M19.7222 6.29069L19.7351 6.27637" stroke="#484848" stroke-width="2.5" stroke-linecap="round" stroke-linejoin="round"/>
</svg>
