<svg width="109" height="41" viewBox="0 0 109 41" fill="none" xmlns="http://www.w3.org/2000/svg">
<rect width="34" height="41" rx="8" fill="#39DB4A"/>
<path d="M23.85 8.07812C24.3713 8.07812 24.7567 8.10079 25.006 8.14613C25.278 8.16879 25.5727 8.27079 25.89 8.45212C26.23 8.63346 26.468 8.93946 26.604 9.37012C26.74 9.80079 26.808 10.3788 26.808 11.1041C26.808 11.8295 26.74 12.4075 26.604 12.8381C26.468 13.2688 26.23 13.5748 25.89 13.7561C25.55 13.9148 25.244 14.0168 24.972 14.0621C24.7227 14.0848 24.326 14.0961 23.782 14.0961H13.378V17.5301H20.076C20.62 17.5301 21.0167 17.5528 21.266 17.5981C21.538 17.6208 21.844 17.7228 22.184 17.9041C22.7733 18.2441 23.068 19.1395 23.068 20.5901C23.068 22.1768 22.6373 23.1175 21.776 23.4121C21.4133 23.5255 20.8353 23.5821 20.042 23.5821H13.378V30.0081C13.378 30.5521 13.3553 30.9488 13.31 31.1981C13.2873 31.4475 13.2725 31.7276 13 32.0001C12.9054 32.0947 11.7692 32.0001 11.352 32.0001C9.76532 32.0001 8.83599 31.5695 8.56399 30.7081C8.42799 30.3455 8.35999 29.7675 8.35999 28.9741V12.0701C8.35999 10.9141 8.57532 10.1321 9.00599 9.72412C9.43665 9.29346 10.2527 9.07812 11.454 9.07812L23.85 8.07812Z" fill="white"/>
<path d="M53.5 7.5C56.2627 7.5 52.448 8.78434 55.948 12.2201C57.9827 14.2175 59 16.7001 59 19.6681C59 22.6175 58.0293 25.1375 56.088 27.2281C54.1467 29.3001 51.7573 30.3361 48.92 30.3361C46.0827 30.3361 43.6653 29.3095 41.668 27.2561C39.6893 25.2028 38.7 22.7575 38.7 19.9201C38.7 18.3708 38.98 16.9241 39.54 15.5801C40.1 14.2175 40.8467 13.0788 41.78 12.1641C42.7133 11.2495 43.7867 10.5308 45 10.0081C46.2133 9.48545 52.212 7.5 53.5 7.5ZM43.656 19.7801C43.656 21.4415 44.188 22.7948 45.252 23.8401C46.3347 24.8668 47.5387 25.3801 48.864 25.3801C50.1893 25.3801 51.384 24.8761 52.448 23.8681C53.512 22.8601 54.044 21.5068 54.044 19.8081C54.044 18.1095 53.5027 16.7468 52.42 15.7201C51.356 14.6935 50.1613 14.1801 48.836 14.1801C47.5107 14.1801 46.316 14.7028 45.252 15.7481C44.188 16.7748 43.656 18.1188 43.656 19.7801Z" fill="black"/>
<path d="M71.0229 9.22412C73.7856 9.22412 76.1843 10.2228 78.2189 12.2201C80.2536 14.2175 81.271 16.7001 81.271 19.6681C81.271 22.6175 80.3003 25.1375 78.359 27.2281C76.4176 29.3001 74.0283 30.3361 71.1909 30.3361C68.3536 30.3361 65.9363 29.3095 63.9389 27.2561C61.9603 25.2028 60.9709 22.7575 60.9709 19.9201C60.9709 18.3708 61.2509 16.9241 61.8109 15.5801C62.3709 14.2175 63.1176 13.0788 64.0509 12.1641C64.9843 11.2495 66.0576 10.5308 67.2709 10.0081C68.4843 9.48545 69.7349 9.22412 71.0229 9.22412ZM65.9269 19.7801C65.9269 21.4415 66.459 22.7948 67.5229 23.8401C68.6056 24.8668 69.8096 25.3801 71.1349 25.3801C72.4603 25.3801 73.6549 24.8761 74.7189 23.8681C75.7829 22.8601 76.3149 21.5068 76.3149 19.8081C76.3149 18.1095 75.7736 16.7468 74.691 15.7201C73.627 14.6935 72.4323 14.1801 71.1069 14.1801C69.7816 14.1801 68.587 14.7028 67.5229 15.7481C66.459 16.7748 65.9269 18.1188 65.9269 19.7801Z" fill="black"/>
<path d="M86.1539 9.44812L91.3339 9.47612C94.0406 9.47612 96.4206 10.4561 98.4739 12.4161C100.527 14.3575 101.554 16.7561 101.554 19.6121C101.554 22.4495 100.546 24.8855 98.5299 26.9201C96.5326 28.9548 94.1059 29.9721 91.2499 29.9721H86.1259C84.9872 29.9721 84.2779 29.7388 83.9979 29.2721C83.7739 28.8801 83.6619 28.2828 83.6619 27.4801V11.9121C83.6619 11.4641 83.6712 11.1375 83.6899 10.9321C83.7272 10.7268 83.8206 10.4841 83.9699 10.2041C84.2312 9.70012 84.9592 9.44812 86.1539 9.44812ZM91.3339 25.0161C92.6779 25.0161 93.8912 24.5215 94.9739 23.5321C96.0566 22.5241 96.5979 21.2641 96.5979 19.7521C96.5979 18.2401 96.0659 16.9801 95.0019 15.9721C93.9566 14.9455 92.7246 14.4321 91.3059 14.4321H88.6179V25.0161H91.3339Z" fill="black"/>
<path d="M103.937 11.9401C103.937 11.5108 103.946 11.1935 103.965 10.9881C104.002 10.7641 104.095 10.5121 104.245 10.2321C104.506 9.72812 105.234 9.47612 106.429 9.47612C107.735 9.47612 108.51 9.82145 108.753 10.5121C108.846 10.8295 108.893 11.3148 108.893 11.9681V27.5361C108.893 27.9841 108.874 28.3108 108.837 28.5161C108.818 28.7215 108.734 28.9641 108.585 29.2441C108.323 29.7481 107.595 30.0001 106.401 30.0001C105.094 30.0001 104.329 29.6455 104.105 28.9361C103.993 28.6375 103.937 28.1615 103.937 27.5081V11.9401Z" fill="black"/>
</svg>
