<svg width="108" height="55" viewBox="0 0 108 55" fill="none" xmlns="http://www.w3.org/2000/svg">
<path d="M5.3821 50.6364V34.2727H6.4304V50.6364H5.3821ZM8.40554 39.5078C8.34588 38.9496 8.09446 38.5149 7.65128 38.2038C7.21236 37.8928 6.64134 37.7372 5.93821 37.7372C5.44389 37.7372 5.01989 37.8118 4.66619 37.9609C4.3125 38.1101 4.0419 38.3125 3.8544 38.5682C3.6669 38.8239 3.57102 39.1158 3.56676 39.4439C3.56676 39.7166 3.62855 39.9531 3.75213 40.1534C3.87997 40.3537 4.05256 40.5241 4.26989 40.6648C4.48722 40.8011 4.72798 40.9162 4.99219 41.0099C5.25639 41.1037 5.52273 41.1825 5.79119 41.2464L7.01847 41.5533C7.51278 41.6683 7.98793 41.8239 8.44389 42.0199C8.90412 42.2159 9.31534 42.4631 9.67756 42.7614C10.044 43.0597 10.3338 43.4197 10.5469 43.8416C10.7599 44.2635 10.8665 44.7578 10.8665 45.3246C10.8665 46.0916 10.6705 46.767 10.2784 47.3509C9.88636 47.9304 9.3196 48.3842 8.57812 48.7124C7.84091 49.0362 6.94815 49.1982 5.89986 49.1982C4.88139 49.1982 3.99716 49.0405 3.24716 48.7251C2.50142 48.4098 1.91761 47.9496 1.49574 47.3445C1.07813 46.7393 0.852273 46.0021 0.818182 45.1328H3.15128C3.18537 45.5888 3.32599 45.968 3.57315 46.2706C3.82031 46.5732 4.14205 46.799 4.53835 46.9482C4.93892 47.0973 5.38636 47.1719 5.88068 47.1719C6.39631 47.1719 6.84801 47.0952 7.2358 46.9418C7.62784 46.7841 7.93466 46.5668 8.15625 46.2898C8.37784 46.0085 8.49077 45.6804 8.49503 45.3054C8.49077 44.9645 8.39063 44.6832 8.1946 44.4616C7.99858 44.2358 7.72372 44.0483 7.37003 43.8991C7.0206 43.7457 6.61151 43.6094 6.14276 43.4901L4.65341 43.1065C3.57528 42.8295 2.72301 42.4098 2.09659 41.8473C1.47443 41.2805 1.16335 40.5284 1.16335 39.5909C1.16335 38.8196 1.37216 38.1442 1.78977 37.5646C2.21165 36.9851 2.7848 36.5355 3.50923 36.2159C4.23366 35.892 5.05398 35.7301 5.97017 35.7301C6.89915 35.7301 7.71307 35.892 8.41193 36.2159C9.11506 36.5355 9.6669 36.9808 10.0675 37.5518C10.468 38.1186 10.6747 38.7706 10.6875 39.5078H8.40554Z" fill="#FF7979"/>
<path d="M20.34 31.5455V49H17.1781V34.6222H17.0758L12.9934 37.2301V34.3324L17.3315 31.5455H20.34ZM30.9764 49.2386C29.7093 49.2386 28.5843 49.0256 27.6014 48.5994C26.6241 48.1733 25.8571 47.5909 25.3002 46.8523C24.7491 46.108 24.4764 45.2642 24.4821 44.321C24.4764 43.5881 24.6355 42.9148 24.9593 42.3011C25.2832 41.6875 25.7207 41.1761 26.2718 40.767C26.8287 40.3523 27.448 40.0881 28.1298 39.9744V39.8551C27.2321 39.6562 26.5048 39.1989 25.948 38.483C25.3968 37.7614 25.1241 36.929 25.1298 35.9858C25.1241 35.0881 25.3741 34.2869 25.8798 33.5824C26.3855 32.8778 27.0787 32.3239 27.9593 31.9205C28.84 31.5114 29.8457 31.3068 30.9764 31.3068C32.0957 31.3068 33.0929 31.5114 33.9679 31.9205C34.8485 32.3239 35.5417 32.8778 36.0474 33.5824C36.5588 34.2869 36.8145 35.0881 36.8145 35.9858C36.8145 36.929 36.5332 37.7614 35.9707 38.483C35.4139 39.1989 34.6951 39.6562 33.8145 39.8551V39.9744C34.4963 40.0881 35.1099 40.3523 35.6554 40.767C36.2065 41.1761 36.644 41.6875 36.9679 42.3011C37.2974 42.9148 37.4622 43.5881 37.4622 44.321C37.4622 45.2642 37.1838 46.108 36.627 46.8523C36.0701 47.5909 35.3031 48.1733 34.3258 48.5994C33.3542 49.0256 32.2377 49.2386 30.9764 49.2386ZM30.9764 46.8011C31.6298 46.8011 32.198 46.6903 32.6809 46.4688C33.1639 46.2415 33.5389 45.9233 33.8059 45.5142C34.073 45.1051 34.2093 44.6335 34.215 44.0994C34.2093 43.5426 34.0645 43.0511 33.7804 42.625C33.502 42.1932 33.1184 41.8551 32.6298 41.6108C32.1468 41.3665 31.5957 41.2443 30.9764 41.2443C30.3514 41.2443 29.7946 41.3665 29.3059 41.6108C28.8173 41.8551 28.4309 42.1932 28.1468 42.625C27.8684 43.0511 27.7321 43.5426 27.7377 44.0994C27.7321 44.6335 27.8627 45.1051 28.1298 45.5142C28.3968 45.9176 28.7718 46.233 29.2548 46.4602C29.7434 46.6875 30.3173 46.8011 30.9764 46.8011ZM30.9764 38.8494C31.5105 38.8494 31.9821 38.7415 32.3912 38.5256C32.8059 38.3097 33.1326 38.0085 33.3713 37.6222C33.6099 37.2358 33.7321 36.7898 33.7377 36.2841C33.7321 35.7841 33.6127 35.3466 33.3798 34.9716C33.1468 34.5909 32.823 34.2983 32.4082 34.0938C31.9934 33.8835 31.5162 33.7784 30.9764 33.7784C30.4252 33.7784 29.9395 33.8835 29.519 34.0938C29.1042 34.2983 28.7804 34.5909 28.5474 34.9716C28.3201 35.3466 28.2093 35.7841 28.215 36.2841C28.2093 36.7898 28.323 37.2358 28.5559 37.6222C28.7946 38.0028 29.1213 38.304 29.536 38.5256C29.9565 38.7415 30.4366 38.8494 30.9764 38.8494ZM41.6831 49.1875C41.166 49.1875 40.7228 49.0057 40.3535 48.642C39.9842 48.2784 39.8024 47.8352 39.8081 47.3125C39.8024 46.8011 39.9842 46.3636 40.3535 46C40.7228 45.6364 41.166 45.4545 41.6831 45.4545C42.1831 45.4545 42.6177 45.6364 42.987 46C43.362 46.3636 43.5524 46.8011 43.5581 47.3125C43.5524 47.6591 43.4615 47.9744 43.2853 48.2585C43.1149 48.5426 42.8876 48.7699 42.6035 48.9403C42.3251 49.1051 42.0183 49.1875 41.6831 49.1875ZM52.4814 49.3324C51.0779 49.3324 49.8734 48.9773 48.8677 48.267C47.8677 47.5511 47.0978 46.5199 46.5581 45.1733C46.024 43.821 45.7569 42.1932 45.7569 40.2898C45.7626 38.3864 46.0325 36.767 46.5666 35.4318C47.1064 34.0909 47.8762 33.0682 48.8762 32.3636C49.8819 31.6591 51.0836 31.3068 52.4814 31.3068C53.8791 31.3068 55.0808 31.6591 56.0865 32.3636C57.0922 33.0682 57.862 34.0909 58.3961 35.4318C58.9359 36.7727 59.2058 38.392 59.2058 40.2898C59.2058 42.1989 58.9359 43.8295 58.3961 45.1818C57.862 46.5284 57.0922 47.5568 56.0865 48.267C55.0865 48.9773 53.8848 49.3324 52.4814 49.3324ZM52.4814 46.6648C53.5723 46.6648 54.4331 46.1278 55.0637 45.054C55.7001 43.9744 56.0183 42.3864 56.0183 40.2898C56.0183 38.9034 55.8734 37.7386 55.5836 36.7955C55.2939 35.8523 54.8848 35.142 54.3564 34.6648C53.8279 34.1818 53.2029 33.9403 52.4814 33.9403C51.3961 33.9403 50.5382 34.4801 49.9075 35.5597C49.2768 36.6335 48.9586 38.2102 48.9529 40.2898C48.9473 41.6818 49.0865 42.8523 49.3706 43.8011C49.6603 44.75 50.0694 45.4659 50.5978 45.9489C51.1262 46.4261 51.7541 46.6648 52.4814 46.6648ZM68.4892 49.3324C67.0858 49.3324 65.8812 48.9773 64.8755 48.267C63.8755 47.5511 63.1056 46.5199 62.5659 45.1733C62.0318 43.821 61.7647 42.1932 61.7647 40.2898C61.7704 38.3864 62.0403 36.767 62.5744 35.4318C63.1142 34.0909 63.8841 33.0682 64.8841 32.3636C65.8897 31.6591 67.0914 31.3068 68.4892 31.3068C69.8869 31.3068 71.0886 31.6591 72.0943 32.3636C73.1 33.0682 73.8699 34.0909 74.4039 35.4318C74.9437 36.7727 75.2136 38.392 75.2136 40.2898C75.2136 42.1989 74.9437 43.8295 74.4039 45.1818C73.8699 46.5284 73.1 47.5568 72.0943 48.267C71.0943 48.9773 69.8926 49.3324 68.4892 49.3324ZM68.4892 46.6648C69.5801 46.6648 70.4409 46.1278 71.0716 45.054C71.7079 43.9744 72.0261 42.3864 72.0261 40.2898C72.0261 38.9034 71.8812 37.7386 71.5914 36.7955C71.3017 35.8523 70.8926 35.142 70.3642 34.6648C69.8358 34.1818 69.2108 33.9403 68.4892 33.9403C67.4039 33.9403 66.546 34.4801 65.9153 35.5597C65.2846 36.6335 64.9664 38.2102 64.9608 40.2898C64.9551 41.6818 65.0943 42.8523 65.3784 43.8011C65.6681 44.75 66.0772 45.4659 66.6056 45.9489C67.1341 46.4261 67.7619 46.6648 68.4892 46.6648Z" fill="#515151"/>
<g clip-path="url(#clip0_340_65)">
<path d="M0.884528 8.26684L3.25786 10.0002L2.35653 12.7915C2.21087 13.2244 2.20902 13.6928 2.35127 14.1269C2.49351 14.561 2.77223 14.9374 3.14586 15.2002C3.5131 15.4714 3.95812 15.6166 4.41463 15.6144C4.87114 15.6121 5.31469 15.4624 5.6792 15.1875L7.99986 13.4795L10.3212 15.1855C10.6878 15.4551 11.1304 15.6016 11.5854 15.6038C12.0405 15.606 12.4845 15.4639 12.8537 15.1978C13.2229 14.9318 13.4982 14.5555 13.6401 14.1232C13.7819 13.6908 13.783 13.2246 13.6432 12.7915L12.7419 10.0002L15.1152 8.26684C15.4813 7.99918 15.7534 7.62267 15.8928 7.1911C16.0321 6.75953 16.0315 6.29496 15.891 5.86377C15.7505 5.43257 15.4774 5.05679 15.1105 4.79011C14.7437 4.52343 14.302 4.37949 13.8485 4.37884H10.9332L10.0485 1.62151C9.90941 1.18748 9.63604 0.808849 9.26784 0.540217C8.89964 0.271584 8.45564 0.126831 7.99986 0.126831C7.54408 0.126831 7.10008 0.271584 6.73188 0.540217C6.36368 0.808849 6.09031 1.18748 5.9512 1.62151L5.06653 4.37884H2.15386C1.70036 4.37949 1.25866 4.52343 0.891848 4.79011C0.52504 5.05679 0.251889 5.43257 0.111409 5.86377C-0.0290704 6.29496 -0.0296922 6.75953 0.109633 7.1911C0.248957 7.62267 0.521102 7.99918 0.887195 8.26684H0.884528Z" fill="#FFE605"/>
</g>
<g clip-path="url(#clip1_340_65)">
<path d="M23.8845 8.26684L26.2579 10.0002L25.3565 12.7915C25.2109 13.2244 25.209 13.6928 25.3513 14.1269C25.4935 14.561 25.7722 14.9374 26.1459 15.2002C26.5131 15.4714 26.9581 15.6166 27.4146 15.6144C27.8711 15.6121 28.3147 15.4624 28.6792 15.1875L30.9999 13.4795L33.3212 15.1855C33.6878 15.4551 34.1304 15.6016 34.5855 15.6038C35.0405 15.606 35.4845 15.4639 35.8537 15.1978C36.2229 14.9318 36.4982 14.5555 36.6401 14.1232C36.7819 13.6908 36.783 13.2246 36.6432 12.7915L35.7419 10.0002L38.1152 8.26684C38.4813 7.99918 38.7534 7.62267 38.8928 7.1911C39.0321 6.75953 39.0315 6.29496 38.891 5.86377C38.7505 5.43257 38.4774 5.05679 38.1106 4.79011C37.7437 4.52343 37.302 4.37949 36.8485 4.37884H33.9332L33.0485 1.62151C32.9094 1.18748 32.636 0.808849 32.2678 0.540217C31.8997 0.271584 31.4556 0.126831 30.9999 0.126831C30.5441 0.126831 30.1001 0.271584 29.7319 0.540217C29.3637 0.808849 29.0903 1.18748 28.9512 1.62151L28.0665 4.37884H25.1539C24.7004 4.37949 24.2587 4.52343 23.8919 4.79011C23.525 5.05679 23.2519 5.43257 23.1114 5.86377C22.9709 6.29496 22.9703 6.75953 23.1096 7.1911C23.249 7.62267 23.5211 7.99918 23.8872 8.26684H23.8845Z" fill="#FFE605"/>
</g>
<g clip-path="url(#clip2_340_65)">
<path d="M46.8845 8.26684L49.2579 10.0002L48.3565 12.7915C48.2109 13.2244 48.209 13.6928 48.3513 14.1269C48.4935 14.561 48.7722 14.9374 49.1459 15.2002C49.5131 15.4714 49.9581 15.6166 50.4146 15.6144C50.8711 15.6121 51.3147 15.4624 51.6792 15.1875L53.9999 13.4795L56.3212 15.1855C56.6878 15.4551 57.1304 15.6016 57.5855 15.6038C58.0405 15.606 58.4845 15.4639 58.8537 15.1978C59.2229 14.9318 59.4982 14.5555 59.6401 14.1232C59.7819 13.6908 59.783 13.2246 59.6432 12.7915L58.7419 10.0002L61.1152 8.26684C61.4813 7.99918 61.7534 7.62267 61.8928 7.1911C62.0321 6.75953 62.0315 6.29496 61.891 5.86377C61.7505 5.43257 61.4774 5.05679 61.1106 4.79011C60.7437 4.52343 60.302 4.37949 59.8485 4.37884H56.9332L56.0485 1.62151C55.9094 1.18748 55.636 0.808849 55.2678 0.540217C54.8997 0.271584 54.4556 0.126831 53.9999 0.126831C53.5441 0.126831 53.1001 0.271584 52.7319 0.540217C52.3637 0.808849 52.0903 1.18748 51.9512 1.62151L51.0665 4.37884H48.1539C47.7004 4.37949 47.2587 4.52343 46.8919 4.79011C46.525 5.05679 46.2519 5.43257 46.1114 5.86377C45.9709 6.29496 45.9703 6.75953 46.1096 7.1911C46.249 7.62267 46.5211 7.99918 46.8872 8.26684H46.8845Z" fill="#FFE605"/>
</g>
<g clip-path="url(#clip3_340_65)">
<path d="M74.568 15.6249C74.0592 15.6226 73.5642 15.4592 73.154 15.1582C72.7348 14.8633 72.422 14.441 72.2621 13.954C72.1023 13.4671 72.1039 12.9415 72.2667 12.4555L73.0467 10.0429L70.9933 8.54153C70.5816 8.24073 70.2756 7.81742 70.1191 7.33216C69.9625 6.8469 69.9635 6.32457 70.1218 5.83988C70.2801 5.35519 70.5877 4.933 71.0004 4.6337C71.4132 4.3344 71.9101 4.17333 72.42 4.17353H74.9333L75.6967 1.79353C75.8533 1.30616 76.1606 0.88108 76.5743 0.579519C76.988 0.277959 77.4867 0.115479 77.9987 0.115479C78.5106 0.115479 79.0093 0.277959 79.423 0.579519C79.8367 0.88108 80.144 1.30616 80.3007 1.79353V1.79353L81.0667 4.17353H83.58C84.0898 4.17347 84.5866 4.33464 84.9993 4.63399C85.412 4.93334 85.7194 5.35554 85.8777 5.8402C86.0359 6.32485 86.0368 6.84713 85.8802 7.33232C85.7237 7.81752 85.4177 8.24077 85.006 8.54153L82.9533 10.0429L83.7333 12.4555C83.8906 12.9422 83.8895 13.4662 83.7301 13.9522C83.5707 14.4382 83.2612 14.8611 82.8463 15.1601C82.4313 15.4591 81.9322 15.6187 81.4208 15.6161C80.9093 15.6135 80.4119 15.4487 80 15.1455L78 13.6749L76 15.1462C75.5862 15.4549 75.0843 15.6226 74.568 15.6249V15.6249ZM72.42 6.17353C72.332 6.17352 72.2463 6.20133 72.175 6.25298C72.1038 6.30462 72.0507 6.37747 72.0233 6.46111C71.996 6.54474 71.9957 6.63488 72.0227 6.71865C72.0496 6.80242 72.1024 6.87553 72.1733 6.92753L74.8107 8.85487C74.9805 8.97904 75.1068 9.15361 75.1717 9.35373C75.2366 9.55386 75.2367 9.76934 75.172 9.96953L74.172 13.0695C74.1443 13.1536 74.144 13.2444 74.1712 13.3286C74.1984 13.4129 74.2517 13.4863 74.3234 13.5383C74.3951 13.5902 74.4815 13.618 74.5701 13.6176C74.6586 13.6173 74.7447 13.5888 74.816 13.5362L77.4087 11.6289C77.5804 11.5025 77.7881 11.4343 78.0013 11.4343C78.2146 11.4343 78.4223 11.5025 78.594 11.6289L81.1867 13.5355C81.2579 13.5886 81.3441 13.6175 81.4329 13.6181C81.5216 13.6187 81.6083 13.5909 81.6802 13.5388C81.752 13.4868 81.8054 13.4131 81.8325 13.3285C81.8596 13.244 81.8589 13.153 81.8307 13.0689L80.8307 9.96887C80.766 9.76868 80.7661 9.55319 80.831 9.35307C80.8959 9.15294 81.0222 8.97837 81.192 8.8542L83.8287 6.92687C83.8996 6.8749 83.9523 6.80185 83.9793 6.71814C84.0063 6.63444 84.0061 6.54436 83.9788 6.46076C83.9515 6.37715 83.8985 6.3043 83.8274 6.2526C83.7563 6.2009 83.6706 6.173 83.5827 6.17287H80.3333C80.1215 6.17281 79.9152 6.10552 79.7441 5.98067C79.5731 5.85583 79.446 5.67988 79.3813 5.4782L78.4 2.4042C78.373 2.32007 78.3199 2.24668 78.2485 2.19462C78.1771 2.14256 78.091 2.11451 78.0027 2.11451C77.9143 2.11451 77.8282 2.14256 77.7568 2.19462C77.6854 2.24668 77.6324 2.32007 77.6053 2.4042L76.6167 5.47887C76.5521 5.68023 76.4254 5.85594 76.2547 5.98075C76.084 6.10556 75.8781 6.17306 75.6667 6.17353H72.42Z" fill="#B0B4B7"/>
</g>
<g clip-path="url(#clip4_340_65)">
<path d="M96.568 15.6249C96.0592 15.6226 95.5642 15.4592 95.154 15.1582C94.7348 14.8633 94.422 14.441 94.2621 13.954C94.1023 13.4671 94.1039 12.9415 94.2667 12.4555L95.0467 10.0429L92.9933 8.54153C92.5816 8.24073 92.2756 7.81742 92.1191 7.33216C91.9625 6.8469 91.9635 6.32457 92.1218 5.83988C92.2801 5.35519 92.5877 4.933 93.0004 4.6337C93.4132 4.3344 93.9101 4.17333 94.42 4.17353H96.9333L97.6967 1.79353C97.8533 1.30616 98.1606 0.88108 98.5743 0.579519C98.988 0.277959 99.4867 0.115479 99.9987 0.115479C100.511 0.115479 101.009 0.277959 101.423 0.579519C101.837 0.88108 102.144 1.30616 102.301 1.79353V1.79353L103.067 4.17353H105.58C106.09 4.17347 106.587 4.33464 106.999 4.63399C107.412 4.93334 107.719 5.35554 107.878 5.8402C108.036 6.32485 108.037 6.84713 107.88 7.33232C107.724 7.81752 107.418 8.24077 107.006 8.54153L104.953 10.0429L105.733 12.4555C105.891 12.9422 105.889 13.4662 105.73 13.9522C105.571 14.4382 105.261 14.8611 104.846 15.1601C104.431 15.4591 103.932 15.6187 103.421 15.6161C102.909 15.6135 102.412 15.4487 102 15.1455L100 13.6749L98 15.1462C97.5862 15.4549 97.0843 15.6226 96.568 15.6249V15.6249ZM94.42 6.17353C94.332 6.17352 94.2463 6.20133 94.175 6.25298C94.1038 6.30462 94.0507 6.37747 94.0233 6.46111C93.996 6.54474 93.9957 6.63488 94.0227 6.71865C94.0496 6.80242 94.1024 6.87553 94.1733 6.92753L96.8107 8.85487C96.9805 8.97904 97.1068 9.15361 97.1717 9.35373C97.2366 9.55386 97.2367 9.76934 97.172 9.96953L96.172 13.0695C96.1443 13.1536 96.144 13.2444 96.1712 13.3286C96.1984 13.4129 96.2517 13.4863 96.3234 13.5383C96.3951 13.5902 96.4815 13.618 96.5701 13.6176C96.6586 13.6173 96.7447 13.5888 96.816 13.5362L99.4087 11.6289C99.5804 11.5025 99.7881 11.4343 100.001 11.4343C100.215 11.4343 100.422 11.5025 100.594 11.6289L103.187 13.5355C103.258 13.5886 103.344 13.6175 103.433 13.6181C103.522 13.6187 103.608 13.5909 103.68 13.5388C103.752 13.4868 103.805 13.4131 103.832 13.3285C103.86 13.244 103.859 13.153 103.831 13.0689L102.831 9.96887C102.766 9.76868 102.766 9.55319 102.831 9.35307C102.896 9.15294 103.022 8.97837 103.192 8.8542L105.829 6.92687C105.9 6.8749 105.952 6.80185 105.979 6.71814C106.006 6.63444 106.006 6.54436 105.979 6.46076C105.952 6.37715 105.899 6.3043 105.827 6.2526C105.756 6.2009 105.671 6.173 105.583 6.17287H102.333C102.122 6.17281 101.915 6.10552 101.744 5.98067C101.573 5.85583 101.446 5.67988 101.381 5.4782L100.4 2.4042C100.373 2.32007 100.32 2.24668 100.249 2.19462C100.177 2.14256 100.091 2.11451 100.003 2.11451C99.9143 2.11451 99.8282 2.14256 99.7568 2.19462C99.6854 2.24668 99.6324 2.32007 99.6053 2.4042L98.6167 5.47887C98.5521 5.68023 98.4254 5.85594 98.2547 5.98075C98.084 6.10556 97.8781 6.17306 97.6667 6.17353H94.42Z" fill="#B0B4B7"/>
</g>
<defs>
<clipPath id="clip0_340_65">
<rect width="16" height="16" fill="white"/>
</clipPath>
<clipPath id="clip1_340_65">
<rect width="16" height="16" fill="white" transform="translate(23)"/>
</clipPath>
<clipPath id="clip2_340_65">
<rect width="16" height="16" fill="white" transform="translate(46)"/>
</clipPath>
<clipPath id="clip3_340_65">
<rect width="16" height="16" fill="white" transform="translate(70)"/>
</clipPath>
<clipPath id="clip4_340_65">
<rect width="16" height="16" fill="white" transform="translate(92)"/>
</clipPath>
</defs>
</svg>
