<svg width="108" height="55" viewBox="0 0 108 55" fill="none" xmlns="http://www.w3.org/2000/svg">
<path d="M5.3821 50.6364V34.2727H6.4304V50.6364H5.3821ZM8.40554 39.5078C8.34588 38.9496 8.09446 38.5149 7.65128 38.2038C7.21236 37.8928 6.64134 37.7372 5.93821 37.7372C5.44389 37.7372 5.01989 37.8118 4.66619 37.9609C4.3125 38.1101 4.0419 38.3125 3.8544 38.5682C3.6669 38.8239 3.57102 39.1158 3.56676 39.4439C3.56676 39.7166 3.62855 39.9531 3.75213 40.1534C3.87997 40.3537 4.05256 40.5241 4.26989 40.6648C4.48722 40.8011 4.72798 40.9162 4.99219 41.0099C5.25639 41.1037 5.52273 41.1825 5.79119 41.2464L7.01847 41.5533C7.51278 41.6683 7.98793 41.8239 8.44389 42.0199C8.90412 42.2159 9.31534 42.4631 9.67756 42.7614C10.044 43.0597 10.3338 43.4197 10.5469 43.8416C10.7599 44.2635 10.8665 44.7578 10.8665 45.3246C10.8665 46.0916 10.6705 46.767 10.2784 47.3509C9.88636 47.9304 9.3196 48.3842 8.57812 48.7124C7.84091 49.0362 6.94815 49.1982 5.89986 49.1982C4.88139 49.1982 3.99716 49.0405 3.24716 48.7251C2.50142 48.4098 1.91761 47.9496 1.49574 47.3445C1.07813 46.7393 0.852273 46.0021 0.818182 45.1328H3.15128C3.18537 45.5888 3.32599 45.968 3.57315 46.2706C3.82031 46.5732 4.14205 46.799 4.53835 46.9482C4.93892 47.0973 5.38636 47.1719 5.88068 47.1719C6.39631 47.1719 6.84801 47.0952 7.2358 46.9418C7.62784 46.7841 7.93466 46.5668 8.15625 46.2898C8.37784 46.0085 8.49077 45.6804 8.49503 45.3054C8.49077 44.9645 8.39063 44.6832 8.1946 44.4616C7.99858 44.2358 7.72372 44.0483 7.37003 43.8991C7.0206 43.7457 6.61151 43.6094 6.14276 43.4901L4.65341 43.1065C3.57528 42.8295 2.72301 42.4098 2.09659 41.8473C1.47443 41.2805 1.16335 40.5284 1.16335 39.5909C1.16335 38.8196 1.37216 38.1442 1.78977 37.5646C2.21165 36.9851 2.7848 36.5355 3.50923 36.2159C4.23366 35.892 5.05398 35.7301 5.97017 35.7301C6.89915 35.7301 7.71307 35.892 8.41193 36.2159C9.11506 36.5355 9.6669 36.9808 10.0675 37.5518C10.468 38.1186 10.6747 38.7706 10.6875 39.5078H8.40554Z" fill="#FF7979"/>
<path d="M13.2406 49V46.7159L19.3002 40.7756C19.8798 40.1903 20.3627 39.6705 20.7491 39.2159C21.1355 38.7614 21.4252 38.321 21.6184 37.8949C21.8116 37.4687 21.9082 37.0142 21.9082 36.5312C21.9082 35.9801 21.7832 35.5085 21.5332 35.1165C21.2832 34.7188 20.9395 34.4119 20.502 34.196C20.0645 33.9801 19.5673 33.8722 19.0105 33.8722C18.4366 33.8722 17.9338 33.9915 17.502 34.2301C17.0701 34.4631 16.7349 34.7955 16.4963 35.2273C16.2633 35.6591 16.1468 36.1733 16.1468 36.7699H13.1383C13.1383 35.6619 13.3912 34.6989 13.8968 33.8807C14.4025 33.0625 15.0985 32.429 15.9849 31.9801C16.877 31.5312 17.8997 31.3068 19.0531 31.3068C20.2235 31.3068 21.252 31.5256 22.1383 31.9631C23.0247 32.4006 23.7122 33 24.2008 33.7614C24.6951 34.5227 24.9423 35.392 24.9423 36.3693C24.9423 37.0227 24.8173 37.6648 24.5673 38.2955C24.3173 38.9261 23.877 39.625 23.2463 40.392C22.6213 41.1591 21.7434 42.0881 20.6127 43.179L17.6042 46.2386V46.358H25.2065V49H13.2406ZM34.411 49.2386C33.1838 49.2386 32.0929 49.0284 31.1383 48.608C30.1895 48.1875 29.4395 47.6023 28.8883 46.8523C28.3372 46.1023 28.0446 45.2358 28.0105 44.2528H31.215C31.2434 44.7244 31.3997 45.1364 31.6838 45.4886C31.9679 45.8352 32.3457 46.1051 32.8173 46.2983C33.2889 46.4915 33.8173 46.5881 34.4025 46.5881C35.0275 46.5881 35.5815 46.4801 36.0645 46.2642C36.5474 46.0426 36.9252 45.7358 37.198 45.3438C37.4707 44.9517 37.6042 44.5 37.5985 43.9886C37.6042 43.4602 37.4679 42.9943 37.1895 42.5909C36.911 42.1875 36.5076 41.8722 35.9792 41.6449C35.4565 41.4176 34.8258 41.304 34.0872 41.304H32.5446V38.8665H34.0872C34.6951 38.8665 35.2264 38.7614 35.6809 38.5511C36.1412 38.3409 36.502 38.0455 36.7633 37.6648C37.0247 37.2784 37.1525 36.8324 37.1468 36.3267C37.1525 35.8324 37.0417 35.4034 36.8145 35.0398C36.5929 34.6705 36.2775 34.3835 35.8684 34.179C35.465 33.9744 34.9906 33.8722 34.4451 33.8722C33.911 33.8722 33.4167 33.9687 32.9622 34.1619C32.5076 34.3551 32.1412 34.6307 31.8627 34.9886C31.5843 35.3409 31.4366 35.7614 31.4196 36.25H28.377C28.3997 35.2727 28.6809 34.4148 29.2207 33.6761C29.7662 32.9318 30.4934 32.3523 31.4025 31.9375C32.3116 31.517 33.3315 31.3068 34.4622 31.3068C35.627 31.3068 36.6383 31.5256 37.4963 31.9631C38.3599 32.3949 39.0275 32.9773 39.4991 33.7102C39.9707 34.4432 40.2065 35.2528 40.2065 36.1392C40.2122 37.1222 39.9224 37.946 39.3372 38.6108C38.7576 39.2756 37.9963 39.7102 37.0531 39.9148V40.0511C38.2804 40.2216 39.2207 40.6761 39.8741 41.4148C40.5332 42.1477 40.8599 43.0597 40.8542 44.1506C40.8542 45.1278 40.5758 46.0028 40.019 46.7756C39.4679 47.5426 38.7065 48.1449 37.7349 48.5824C36.769 49.0199 35.661 49.2386 34.411 49.2386ZM45.1987 49.1875C44.6816 49.1875 44.2385 49.0057 43.8691 48.642C43.4998 48.2784 43.318 47.8352 43.3237 47.3125C43.318 46.8011 43.4998 46.3636 43.8691 46C44.2385 45.6364 44.6816 45.4545 45.1987 45.4545C45.6987 45.4545 46.1333 45.6364 46.5027 46C46.8777 46.3636 47.068 46.8011 47.0737 47.3125C47.068 47.6591 46.9771 47.9744 46.801 48.2585C46.6305 48.5426 46.4032 48.7699 46.1191 48.9403C45.8407 49.1051 45.5339 49.1875 45.1987 49.1875ZM55.997 49.3324C54.5936 49.3324 53.389 48.9773 52.3833 48.267C51.3833 47.5511 50.6135 46.5199 50.0737 45.1733C49.5396 43.821 49.2725 42.1932 49.2725 40.2898C49.2782 38.3864 49.5481 36.767 50.0822 35.4318C50.622 34.0909 51.3919 33.0682 52.3919 32.3636C53.3975 31.6591 54.5993 31.3068 55.997 31.3068C57.3947 31.3068 58.5964 31.6591 59.6021 32.3636C60.6078 33.0682 61.3777 34.0909 61.9118 35.4318C62.4515 36.7727 62.7214 38.392 62.7214 40.2898C62.7214 42.1989 62.4515 43.8295 61.9118 45.1818C61.3777 46.5284 60.6078 47.5568 59.6021 48.267C58.6021 48.9773 57.4004 49.3324 55.997 49.3324ZM55.997 46.6648C57.0879 46.6648 57.9487 46.1278 58.5794 45.054C59.2157 43.9744 59.5339 42.3864 59.5339 40.2898C59.5339 38.9034 59.389 37.7386 59.0993 36.7955C58.8095 35.8523 58.4004 35.142 57.872 34.6648C57.3436 34.1818 56.7186 33.9403 55.997 33.9403C54.9118 33.9403 54.0538 34.4801 53.4231 35.5597C52.7924 36.6335 52.4743 38.2102 52.4686 40.2898C52.4629 41.6818 52.6021 42.8523 52.8862 43.8011C53.176 44.75 53.585 45.4659 54.1135 45.9489C54.6419 46.4261 55.2697 46.6648 55.997 46.6648ZM72.0048 49.3324C70.6014 49.3324 69.3968 48.9773 68.3912 48.267C67.3912 47.5511 66.6213 46.5199 66.0815 45.1733C65.5474 43.821 65.2804 42.1932 65.2804 40.2898C65.286 38.3864 65.5559 36.767 66.09 35.4318C66.6298 34.0909 67.3997 33.0682 68.3997 32.3636C69.4054 31.6591 70.6071 31.3068 72.0048 31.3068C73.4025 31.3068 74.6042 31.6591 75.6099 32.3636C76.6156 33.0682 77.3855 34.0909 77.9196 35.4318C78.4593 36.7727 78.7292 38.392 78.7292 40.2898C78.7292 42.1989 78.4593 43.8295 77.9196 45.1818C77.3855 46.5284 76.6156 47.5568 75.6099 48.267C74.6099 48.9773 73.4082 49.3324 72.0048 49.3324ZM72.0048 46.6648C73.0957 46.6648 73.9565 46.1278 74.5872 45.054C75.2235 43.9744 75.5417 42.3864 75.5417 40.2898C75.5417 38.9034 75.3968 37.7386 75.1071 36.7955C74.8173 35.8523 74.4082 35.142 73.8798 34.6648C73.3514 34.1818 72.7264 33.9403 72.0048 33.9403C70.9196 33.9403 70.0616 34.4801 69.4309 35.5597C68.8002 36.6335 68.4821 38.2102 68.4764 40.2898C68.4707 41.6818 68.6099 42.8523 68.894 43.8011C69.1838 44.75 69.5929 45.4659 70.1213 45.9489C70.6497 46.4261 71.2775 46.6648 72.0048 46.6648Z" fill="#515151"/>
<g clip-path="url(#clip0_340_47)">
<path d="M0.884551 8.26684L3.25788 10.0002L2.35655 12.7915C2.21089 13.2244 2.20905 13.6928 2.35129 14.1269C2.49353 14.561 2.77225 14.9374 3.14588 15.2002C3.51312 15.4714 3.95815 15.6166 4.41465 15.6144C4.87116 15.6121 5.31471 15.4624 5.67922 15.1875L7.99989 13.4795L10.3212 15.1855C10.6878 15.4551 11.1304 15.6016 11.5855 15.6038C12.0405 15.606 12.4846 15.4639 12.8537 15.1978C13.2229 14.9318 13.4982 14.5555 13.6401 14.1232C13.7819 13.6908 13.783 13.2246 13.6432 12.7915L12.7419 10.0002L15.1152 8.26684C15.4813 7.99918 15.7535 7.62267 15.8928 7.1911C16.0321 6.75953 16.0315 6.29496 15.891 5.86377C15.7505 5.43257 15.4774 5.05679 15.1106 4.79011C14.7438 4.52343 14.3021 4.37949 13.8486 4.37884H10.9332L10.0486 1.62151C9.90943 1.18748 9.63606 0.808849 9.26786 0.540217C8.89967 0.271584 8.45566 0.126831 7.99989 0.126831C7.54411 0.126831 7.10011 0.271584 6.73191 0.540217C6.36371 0.808849 6.09034 1.18748 5.95122 1.62151L5.06655 4.37884H2.15388C1.70038 4.37949 1.25868 4.52343 0.891871 4.79011C0.525063 5.05679 0.251912 5.43257 0.111432 5.86377C-0.0290475 6.29496 -0.0296693 6.75953 0.109656 7.1911C0.24898 7.62267 0.521125 7.99918 0.887218 8.26684H0.884551Z" fill="#FFE605"/>
</g>
<g clip-path="url(#clip1_340_47)">
<path d="M23.8846 8.26684L26.2579 10.0002L25.3566 12.7915C25.2109 13.2244 25.209 13.6928 25.3513 14.1269C25.4935 14.561 25.7722 14.9374 26.1459 15.2002C26.5131 15.4714 26.9581 15.6166 27.4147 15.6144C27.8712 15.6121 28.3147 15.4624 28.6792 15.1875L30.9999 13.4795L33.3212 15.1855C33.6878 15.4551 34.1304 15.6016 34.5855 15.6038C35.0405 15.606 35.4846 15.4639 35.8537 15.1978C36.2229 14.9318 36.4982 14.5555 36.6401 14.1232C36.7819 13.6908 36.783 13.2246 36.6432 12.7915L35.7419 10.0002L38.1152 8.26684C38.4813 7.99918 38.7535 7.62267 38.8928 7.1911C39.0321 6.75953 39.0315 6.29496 38.891 5.86377C38.7505 5.43257 38.4774 5.05679 38.1106 4.79011C37.7438 4.52343 37.3021 4.37949 36.8486 4.37884H33.9332L33.0486 1.62151C32.9094 1.18748 32.6361 0.808849 32.2679 0.540217C31.8997 0.271584 31.4557 0.126831 30.9999 0.126831C30.5441 0.126831 30.1001 0.271584 29.7319 0.540217C29.3637 0.808849 29.0903 1.18748 28.9512 1.62151L28.0666 4.37884H25.1539C24.7004 4.37949 24.2587 4.52343 23.8919 4.79011C23.5251 5.05679 23.2519 5.43257 23.1114 5.86377C22.971 6.29496 22.9703 6.75953 23.1097 7.1911C23.249 7.62267 23.5211 7.99918 23.8872 8.26684H23.8846Z" fill="#FFE605"/>
</g>
<g clip-path="url(#clip2_340_47)">
<path d="M46.8846 8.26684L49.2579 10.0002L48.3566 12.7915C48.2109 13.2244 48.209 13.6928 48.3513 14.1269C48.4935 14.561 48.7722 14.9374 49.1459 15.2002C49.5131 15.4714 49.9581 15.6166 50.4147 15.6144C50.8712 15.6121 51.3147 15.4624 51.6792 15.1875L53.9999 13.4795L56.3212 15.1855C56.6878 15.4551 57.1304 15.6016 57.5855 15.6038C58.0405 15.606 58.4846 15.4639 58.8537 15.1978C59.2229 14.9318 59.4982 14.5555 59.6401 14.1232C59.7819 13.6908 59.783 13.2246 59.6432 12.7915L58.7419 10.0002L61.1152 8.26684C61.4813 7.99918 61.7535 7.62267 61.8928 7.1911C62.0321 6.75953 62.0315 6.29496 61.891 5.86377C61.7505 5.43257 61.4774 5.05679 61.1106 4.79011C60.7438 4.52343 60.3021 4.37949 59.8486 4.37884H56.9332L56.0486 1.62151C55.9094 1.18748 55.6361 0.808849 55.2679 0.540217C54.8997 0.271584 54.4557 0.126831 53.9999 0.126831C53.5441 0.126831 53.1001 0.271584 52.7319 0.540217C52.3637 0.808849 52.0903 1.18748 51.9512 1.62151L51.0666 4.37884H48.1539C47.7004 4.37949 47.2587 4.52343 46.8919 4.79011C46.5251 5.05679 46.2519 5.43257 46.1114 5.86377C45.971 6.29496 45.9703 6.75953 46.1097 7.1911C46.249 7.62267 46.5211 7.99918 46.8872 8.26684H46.8846Z" fill="#FFE605"/>
</g>
<g clip-path="url(#clip3_340_47)">
<path d="M69.8846 8.26684L72.2579 10.0002L71.3566 12.7915C71.2109 13.2244 71.209 13.6928 71.3513 14.1269C71.4935 14.561 71.7722 14.9374 72.1459 15.2002C72.5131 15.4714 72.9581 15.6166 73.4147 15.6144C73.8712 15.6121 74.3147 15.4624 74.6792 15.1875L76.9999 13.4795L79.3212 15.1855C79.6878 15.4551 80.1304 15.6016 80.5855 15.6038C81.0405 15.606 81.4846 15.4639 81.8537 15.1978C82.2229 14.9318 82.4982 14.5555 82.6401 14.1232C82.7819 13.6908 82.783 13.2246 82.6432 12.7915L81.7419 10.0002L84.1152 8.26684C84.4813 7.99918 84.7535 7.62267 84.8928 7.1911C85.0321 6.75953 85.0315 6.29496 84.891 5.86377C84.7505 5.43257 84.4774 5.05679 84.1106 4.79011C83.7438 4.52343 83.3021 4.37949 82.8486 4.37884H79.9332L79.0486 1.62151C78.9094 1.18748 78.6361 0.808849 78.2679 0.540217C77.8997 0.271584 77.4557 0.126831 76.9999 0.126831C76.5441 0.126831 76.1001 0.271584 75.7319 0.540217C75.3637 0.808849 75.0903 1.18748 74.9512 1.62151L74.0666 4.37884H71.1539C70.7004 4.37949 70.2587 4.52343 69.8919 4.79011C69.5251 5.05679 69.2519 5.43257 69.1114 5.86377C68.971 6.29496 68.9703 6.75953 69.1097 7.1911C69.249 7.62267 69.5211 7.99918 69.8872 8.26684H69.8846Z" fill="#FFE605"/>
</g>
<g clip-path="url(#clip4_340_47)">
<path d="M96.568 15.6249C96.0592 15.6226 95.5642 15.4592 95.154 15.1582C94.7348 14.8633 94.422 14.441 94.2622 13.954C94.1023 13.4671 94.1039 12.9415 94.2667 12.4555L95.0467 10.0429L92.9934 8.54153C92.5817 8.24073 92.2756 7.81742 92.1191 7.33216C91.9626 6.8469 91.9635 6.32457 92.1218 5.83988C92.2801 5.35519 92.5877 4.933 93.0005 4.6337C93.4133 4.3344 93.9101 4.17333 94.42 4.17353H96.9334L97.6967 1.79353C97.8534 1.30616 98.1607 0.88108 98.5743 0.579519C98.988 0.277959 99.4868 0.115479 99.9987 0.115479C100.511 0.115479 101.009 0.277959 101.423 0.579519C101.837 0.88108 102.144 1.30616 102.301 1.79353V1.79353L103.067 4.17353H105.58C106.09 4.17347 106.587 4.33464 106.999 4.63399C107.412 4.93334 107.719 5.35554 107.878 5.8402C108.036 6.32485 108.037 6.84713 107.88 7.33232C107.724 7.81752 107.418 8.24077 107.006 8.54153L104.953 10.0429L105.733 12.4555C105.891 12.9422 105.889 13.4662 105.73 13.9522C105.571 14.4382 105.261 14.8611 104.846 15.1601C104.431 15.4591 103.932 15.6187 103.421 15.6161C102.909 15.6135 102.412 15.4487 102 15.1455L100 13.6749L98 15.1462C97.5862 15.4549 97.0843 15.6226 96.568 15.6249V15.6249ZM94.42 6.17353C94.332 6.17352 94.2463 6.20133 94.175 6.25298C94.1038 6.30462 94.0507 6.37747 94.0233 6.46111C93.996 6.54474 93.9958 6.63488 94.0227 6.71865C94.0496 6.80242 94.1024 6.87553 94.1734 6.92753L96.8107 8.85487C96.9805 8.97904 97.1069 9.15361 97.1717 9.35373C97.2366 9.55386 97.2367 9.76934 97.172 9.96953L96.172 13.0695C96.1443 13.1536 96.144 13.2444 96.1712 13.3286C96.1984 13.4129 96.2518 13.4863 96.3235 13.5383C96.3952 13.5902 96.4815 13.618 96.5701 13.6176C96.6586 13.6173 96.7448 13.5888 96.816 13.5362L99.4087 11.6289C99.5805 11.5025 99.7881 11.4343 100.001 11.4343C100.215 11.4343 100.422 11.5025 100.594 11.6289L103.187 13.5355C103.258 13.5886 103.344 13.6175 103.433 13.6181C103.522 13.6187 103.608 13.5909 103.68 13.5388C103.752 13.4868 103.805 13.4131 103.832 13.3285C103.86 13.244 103.859 13.153 103.831 13.0689L102.831 9.96887C102.766 9.76868 102.766 9.55319 102.831 9.35307C102.896 9.15294 103.022 8.97837 103.192 8.8542L105.829 6.92687C105.9 6.8749 105.952 6.80185 105.979 6.71814C106.006 6.63444 106.006 6.54436 105.979 6.46076C105.952 6.37715 105.899 6.3043 105.827 6.2526C105.756 6.2009 105.671 6.173 105.583 6.17287H102.333C102.122 6.17281 101.915 6.10552 101.744 5.98067C101.573 5.85583 101.446 5.67988 101.381 5.4782L100.4 2.4042C100.373 2.32007 100.32 2.24668 100.249 2.19462C100.177 2.14256 100.091 2.11451 100.003 2.11451C99.9143 2.11451 99.8282 2.14256 99.7568 2.19462C99.6854 2.24668 99.6324 2.32007 99.6054 2.4042L98.6167 5.47887C98.5521 5.68023 98.4254 5.85594 98.2547 5.98075C98.084 6.10556 97.8782 6.17306 97.6667 6.17353H94.42Z" fill="#B0B4B7"/>
</g>
<defs>
<clipPath id="clip0_340_47">
<rect width="16" height="16" fill="white"/>
</clipPath>
<clipPath id="clip1_340_47">
<rect width="16" height="16" fill="white" transform="translate(23)"/>
</clipPath>
<clipPath id="clip2_340_47">
<rect width="16" height="16" fill="white" transform="translate(46)"/>
</clipPath>
<clipPath id="clip3_340_47">
<rect width="16" height="16" fill="white" transform="translate(69)"/>
</clipPath>
<clipPath id="clip4_340_47">
<rect width="16" height="16" fill="white" transform="translate(92)"/>
</clipPath>
</defs>
</svg>
