<svg width="33" height="30" viewBox="0 0 33 30" fill="none" xmlns="http://www.w3.org/2000/svg">
<g clip-path="url(#clip0_115_54)">
<path d="M21 12H18C18 10.4087 17.3679 8.88258 16.2426 7.75736C15.1174 6.63214 13.5913 6 12 6C10.4087 6 8.88258 6.63214 7.75736 7.75736C6.63214 8.88258 6 10.4087 6 12H3C2.20435 12 1.44129 12.3161 0.87868 12.8787C0.31607 13.4413 0 14.2044 0 15L0 25C0.00158786 26.3256 0.528882 27.5964 1.46622 28.5338C2.40356 29.4711 3.67441 29.9984 5 30H19C20.3256 29.9984 21.5964 29.4711 22.5338 28.5338C23.4711 27.5964 23.9984 26.3256 24 25V15C24 14.2044 23.6839 13.4413 23.1213 12.8787C22.5587 12.3161 21.7956 12 21 12ZM12 8C13.0609 8 14.0783 8.42143 14.8284 9.17157C15.5786 9.92172 16 10.9391 16 12H8C8 10.9391 8.42143 9.92172 9.17157 9.17157C9.92172 8.42143 10.9391 8 12 8ZM22 25C22 25.7956 21.6839 26.5587 21.1213 27.1213C20.5587 27.6839 19.7956 28 19 28H5C4.20435 28 3.44129 27.6839 2.87868 27.1213C2.31607 26.5587 2 25.7956 2 25V15C2 14.7348 2.10536 14.4804 2.29289 14.2929C2.48043 14.1054 2.73478 14 3 14H6V16C6 16.2652 6.10536 16.5196 6.29289 16.7071C6.48043 16.8946 6.73478 17 7 17C7.26522 17 7.51957 16.8946 7.70711 16.7071C7.89464 16.5196 8 16.2652 8 16V14H16V16C16 16.2652 16.1054 16.5196 16.2929 16.7071C16.4804 16.8946 16.7348 17 17 17C17.2652 17 17.5196 16.8946 17.7071 16.7071C17.8946 16.5196 18 16.2652 18 16V14H21C21.2652 14 21.5196 14.1054 21.7071 14.2929C21.8946 14.4804 22 14.7348 22 15V25Z" fill="#272727"/>
</g>
<circle cx="23" cy="10" r="10" fill="#39DB4A"/>
<path d="M22.6236 15.1392C21.858 15.1392 21.1768 15.0149 20.5803 14.7663C19.987 14.5144 19.5213 14.1714 19.1832 13.7372C18.8452 13.303 18.6761 12.8108 18.6761 12.2607C18.6761 11.8364 18.7723 11.447 18.9645 11.0923C19.16 10.7344 19.4252 10.4377 19.7599 10.2024C20.0947 9.96378 20.4692 9.81132 20.8835 9.74503V9.67543C20.34 9.56605 19.8991 9.30256 19.5611 8.88494C19.223 8.46401 19.054 7.97514 19.054 7.41832C19.054 6.89134 19.2081 6.42235 19.5163 6.01136C19.8246 5.59706 20.2472 5.27225 20.7841 5.03693C21.3243 4.7983 21.9375 4.67898 22.6236 4.67898C23.3097 4.67898 23.9212 4.7983 24.4581 5.03693C24.9983 5.27557 25.4226 5.60204 25.7308 6.01633C26.0391 6.42732 26.1948 6.89465 26.1982 7.41832C26.1948 7.97846 26.0225 8.46733 25.6811 8.88494C25.3397 9.30256 24.9022 9.56605 24.3686 9.67543V9.74503C24.7763 9.81132 25.1458 9.96378 25.4773 10.2024C25.812 10.4377 26.0772 10.7344 26.2727 11.0923C26.4716 11.447 26.5727 11.8364 26.576 12.2607C26.5727 12.8108 26.402 13.303 26.0639 13.7372C25.7259 14.1714 25.2585 14.5144 24.6619 14.7663C24.0687 15.0149 23.3892 15.1392 22.6236 15.1392ZM22.6236 13.5582C22.965 13.5582 23.2633 13.4969 23.5185 13.3743C23.7737 13.2483 23.9725 13.076 24.1151 12.8572C24.2609 12.6352 24.3338 12.38 24.3338 12.0916C24.3338 11.7966 24.2592 11.5365 24.1101 11.3111C23.9609 11.0824 23.7588 10.9034 23.5036 10.7741C23.2483 10.6416 22.955 10.5753 22.6236 10.5753C22.2955 10.5753 22.0021 10.6416 21.7436 10.7741C21.4851 10.9034 21.2813 11.0824 21.1321 11.3111C20.9863 11.5365 20.9134 11.7966 20.9134 12.0916C20.9134 12.38 20.9846 12.6352 21.1271 12.8572C21.2696 13.076 21.4702 13.2483 21.7287 13.3743C21.9872 13.4969 22.2855 13.5582 22.6236 13.5582ZM22.6236 9.00923C22.9086 9.00923 23.1622 8.95123 23.3842 8.83523C23.6063 8.71922 23.7803 8.55848 23.9062 8.35298C24.0322 8.14749 24.0952 7.91051 24.0952 7.64205C24.0952 7.37689 24.0322 7.14489 23.9062 6.94602C23.7803 6.74384 23.608 6.58641 23.3892 6.47372C23.1705 6.35772 22.9152 6.29972 22.6236 6.29972C22.3352 6.29972 22.08 6.35772 21.858 6.47372C21.6359 6.58641 21.4619 6.74384 21.3359 6.94602C21.2133 7.14489 21.152 7.37689 21.152 7.64205C21.152 7.91051 21.215 8.14749 21.3409 8.35298C21.4669 8.55848 21.6409 8.71922 21.8629 8.83523C22.085 8.95123 22.3385 9.00923 22.6236 9.00923Z" fill="white"/>
<defs>
<clipPath id="clip0_115_54">
<rect width="24" height="24" fill="white" transform="translate(0 6)"/>
</clipPath>
</defs>
</svg>
