<svg width="77" height="29" viewBox="0 0 77 29" fill="none" xmlns="http://www.w3.org/2000/svg">
<path d="M40.2358 19.7614V17.2472L47.642 5.54545H49.7386V9.125H48.4602L43.4744 17.0256V17.1619H53.8125V19.7614H40.2358ZM48.5625 23V18.9943L48.5966 17.8693V5.54545H51.5795V23H48.5625ZM57.978 23.1875C57.4609 23.1875 57.0178 23.0057 56.6484 22.642C56.2791 22.2784 56.0973 21.8352 56.103 21.3125C56.0973 20.8011 56.2791 20.3636 56.6484 20C57.0178 19.6364 57.4609 19.4545 57.978 19.4545C58.478 19.4545 58.9126 19.6364 59.282 20C59.657 20.3636 59.8473 20.8011 59.853 21.3125C59.8473 21.6591 59.7564 21.9744 59.5803 22.2585C59.4098 22.5426 59.1825 22.7699 58.8984 22.9403C58.62 23.1051 58.3132 23.1875 57.978 23.1875ZM68.7166 23.2386C67.8814 23.233 67.0661 23.0881 66.2706 22.804C65.4751 22.5142 64.7592 22.0455 64.1229 21.3977C63.4865 20.7443 62.9808 19.8778 62.6058 18.7983C62.2308 17.7131 62.0462 16.3693 62.0518 14.767C62.0518 13.2727 62.2109 11.9403 62.5291 10.7699C62.8473 9.59943 63.3047 8.6108 63.9013 7.80398C64.4979 6.99148 65.2166 6.37216 66.0575 5.94602C66.9041 5.51989 67.8501 5.30682 68.8956 5.30682C69.9922 5.30682 70.9638 5.52273 71.8104 5.95454C72.6626 6.38636 73.3501 6.97727 73.8729 7.72727C74.3956 8.47159 74.7195 9.3125 74.8445 10.25H71.7337C71.5746 9.57955 71.2479 9.04545 70.7536 8.64773C70.2649 8.24432 69.6456 8.04261 68.8956 8.04261C67.6854 8.04261 66.7536 8.56818 66.1001 9.61932C65.4524 10.6705 65.1257 12.1136 65.12 13.9489H65.2393C65.5178 13.4489 65.8786 13.0199 66.3217 12.6619C66.7649 12.304 67.2649 12.0284 67.8217 11.8352C68.3842 11.6364 68.978 11.5369 69.603 11.5369C70.6257 11.5369 71.5433 11.7812 72.3558 12.2699C73.174 12.7585 73.8217 13.4318 74.299 14.2898C74.7763 15.142 75.0121 16.1193 75.0064 17.2216C75.0121 18.3693 74.7507 19.4006 74.2223 20.3153C73.6939 21.2244 72.9581 21.9403 72.0149 22.4631C71.0717 22.9858 69.9723 23.2443 68.7166 23.2386ZM68.6996 20.6818C69.3189 20.6818 69.8729 20.5312 70.3615 20.2301C70.8501 19.929 71.2365 19.5227 71.5206 19.0114C71.8047 18.5 71.9439 17.9261 71.9382 17.2898C71.9439 16.6648 71.8075 16.0994 71.5291 15.5938C71.2564 15.0881 70.8786 14.6875 70.3956 14.392C69.9126 14.0966 69.3615 13.9489 68.7422 13.9489C68.282 13.9489 67.853 14.0369 67.4553 14.2131C67.0575 14.3892 66.7109 14.6335 66.4155 14.946C66.12 15.2528 65.8871 15.6108 65.7166 16.0199C65.5518 16.4233 65.4666 16.8551 65.4609 17.3153C65.4666 17.9233 65.6087 18.483 65.8871 18.9943C66.1655 19.5057 66.549 19.9148 67.0376 20.2216C67.5263 20.5284 68.0803 20.6818 68.6996 20.6818Z" fill="#454545"/>
<g clip-path="url(#clip0_177_44)">
<path d="M1.3268 15.4003L4.8868 18.0003L3.5348 22.1873C3.31631 22.8367 3.31354 23.5393 3.52691 24.1904C3.74027 24.8415 4.15834 25.4062 4.7188 25.8003C5.26965 26.2071 5.93719 26.425 6.62195 26.4216C7.30671 26.4182 7.97204 26.1936 8.5188 25.7813L11.9998 23.2193L15.4818 25.7783C16.0317 26.1828 16.6956 26.4024 17.3782 26.4058C18.0607 26.4091 18.7268 26.1959 19.2806 25.7968C19.8343 25.3977 20.2473 24.8333 20.4601 24.1848C20.6729 23.5362 20.6745 22.8369 20.4648 22.1873L19.1128 18.0003L22.6728 15.4003C23.2219 14.9988 23.6302 14.4341 23.8391 13.7867C24.0481 13.1393 24.0472 12.4425 23.8365 11.7957C23.6258 11.1489 23.216 10.5852 22.6658 10.1852C22.1156 9.78519 21.4531 9.56927 20.7728 9.56831H16.3998L15.0728 5.43231C14.8641 4.78126 14.4541 4.21332 13.9018 3.81037C13.3495 3.40742 12.6835 3.19029 11.9998 3.19029C11.3161 3.19029 10.6501 3.40742 10.0978 3.81037C9.54553 4.21332 9.13548 4.78126 8.9268 5.43231L7.5998 9.56831H3.2308C2.55054 9.56927 1.88799 9.78519 1.33778 10.1852C0.787564 10.5852 0.377837 11.1489 0.167118 11.7957C-0.0436018 12.4425 -0.0445344 13.1393 0.164453 13.7867C0.37344 14.4341 0.781657 14.9988 1.3308 15.4003H1.3268Z" fill="#FFE605"/>
</g>
<defs>
<clipPath id="clip0_177_44">
<rect width="24" height="24" fill="white" transform="translate(0 3)"/>
</clipPath>
</defs>
</svg>
