<svg width="77" height="29" viewBox="0 0 77 29" fill="none" xmlns="http://www.w3.org/2000/svg">
<path d="M40.2358 19.7614V17.2472L47.642 5.54545H49.7386V9.125H48.4602L43.4744 17.0256V17.1619H53.8125V19.7614H40.2358ZM48.5625 23V18.9943L48.5966 17.8693V5.54545H51.5795V23H48.5625ZM57.978 23.1875C57.4609 23.1875 57.0178 23.0057 56.6484 22.642C56.2791 22.2784 56.0973 21.8352 56.103 21.3125C56.0973 20.8011 56.2791 20.3636 56.6484 20C57.0178 19.6364 57.4609 19.4545 57.978 19.4545C58.478 19.4545 58.9126 19.6364 59.282 20C59.657 20.3636 59.8473 20.8011 59.853 21.3125C59.8473 21.6591 59.7564 21.9744 59.5803 22.2585C59.4098 22.5426 59.1825 22.7699 58.8984 22.9403C58.62 23.1051 58.3132 23.1875 57.978 23.1875ZM68.8615 23.2386C67.7251 23.2386 66.7081 23.0256 65.8104 22.5994C64.9126 22.1676 64.1996 21.5767 63.6712 20.8267C63.1484 20.0767 62.87 19.2187 62.8359 18.2528H65.9041C65.9609 18.9687 66.2706 19.554 66.8331 20.0085C67.3956 20.4574 68.0717 20.6818 68.8615 20.6818C69.4808 20.6818 70.032 20.5398 70.5149 20.2557C70.9979 19.9716 71.3786 19.5767 71.657 19.071C71.9354 18.5653 72.0717 17.9886 72.0661 17.3409C72.0717 16.6818 71.9325 16.0966 71.6484 15.5852C71.3643 15.0739 70.9751 14.6733 70.4808 14.3835C69.9865 14.0881 69.4183 13.9403 68.7763 13.9403C68.2536 13.9347 67.7393 14.0312 67.2337 14.2301C66.728 14.429 66.3274 14.6903 66.032 15.0142L63.1768 14.5455L64.0888 5.54545H74.2138V8.1875H66.7053L66.2024 12.8153H66.3047C66.6286 12.4347 67.0859 12.1193 67.6768 11.8693C68.2678 11.6136 68.9155 11.4858 69.62 11.4858C70.6768 11.4858 71.62 11.7358 72.4496 12.2358C73.2791 12.7301 73.9325 13.4119 74.4098 14.2812C74.8871 15.1506 75.1257 16.1449 75.1257 17.2642C75.1257 18.4176 74.8587 19.446 74.3246 20.3494C73.7962 21.2472 73.0604 21.9545 72.1172 22.4716C71.1797 22.983 70.0945 23.2386 68.8615 23.2386Z" fill="#454545"/>
<g clip-path="url(#clip0_177_45)">
<path d="M1.32677 15.4003L4.88677 18.0003L3.53477 22.1873C3.31628 22.8367 3.31351 23.5393 3.52688 24.1904C3.74024 24.8415 4.15831 25.4062 4.71877 25.8003C5.26962 26.2071 5.93716 26.425 6.62192 26.4216C7.30668 26.4182 7.97201 26.1936 8.51877 25.7813L11.9998 23.2193L15.4818 25.7783C16.0316 26.1828 16.6956 26.4024 17.3781 26.4058C18.0607 26.4091 18.7268 26.1959 19.2805 25.7968C19.8343 25.3977 20.2473 24.8333 20.4601 24.1848C20.6728 23.5362 20.6745 22.8369 20.4648 22.1873L19.1128 18.0003L22.6728 15.4003C23.2219 14.9988 23.6301 14.4341 23.8391 13.7867C24.0481 13.1393 24.0472 12.4425 23.8364 11.7957C23.6257 11.1489 23.216 10.5852 22.6658 10.1852C22.1156 9.78519 21.453 9.56927 20.7728 9.56831H16.3998L15.0728 5.43231C14.8641 4.78126 14.454 4.21332 13.9017 3.81037C13.3494 3.40742 12.6834 3.19029 11.9998 3.19029C11.3161 3.19029 10.6501 3.40742 10.0978 3.81037C9.5455 4.21332 9.13544 4.78126 8.92677 5.43231L7.59977 9.56831H3.23077C2.55051 9.56927 1.88796 9.78519 1.33775 10.1852C0.787534 10.5852 0.377806 11.1489 0.167087 11.7957C-0.0436323 12.4425 -0.044565 13.1393 0.164422 13.7867C0.37341 14.4341 0.781627 14.9988 1.33077 15.4003H1.32677Z" fill="#FFE605"/>
</g>
<defs>
<clipPath id="clip0_177_45">
<rect width="24" height="24" fill="white" transform="translate(0 3)"/>
</clipPath>
</defs>
</svg>
