<svg width="77" height="29" viewBox="0 0 77 29" fill="none" xmlns="http://www.w3.org/2000/svg">
<path d="M40.2358 19.7614V17.2472L47.642 5.54545H49.7386V9.125H48.4602L43.4744 17.0256V17.1619H53.8125V19.7614H40.2358ZM48.5625 23V18.9943L48.5966 17.8693V5.54545H51.5795V23H48.5625ZM57.978 23.1875C57.4609 23.1875 57.0178 23.0057 56.6484 22.642C56.2791 22.2784 56.0973 21.8352 56.103 21.3125C56.0973 20.8011 56.2791 20.3636 56.6484 20C57.0178 19.6364 57.4609 19.4545 57.978 19.4545C58.478 19.4545 58.9126 19.6364 59.282 20C59.657 20.3636 59.8473 20.8011 59.853 21.3125C59.8473 21.6591 59.7564 21.9744 59.5803 22.2585C59.4098 22.5426 59.1825 22.7699 58.8984 22.9403C58.62 23.1051 58.3132 23.1875 57.978 23.1875ZM68.8061 5.30682C69.6413 5.3125 70.4538 5.46023 71.2436 5.75C72.0391 6.03409 72.755 6.5 73.3913 7.14773C74.0277 7.78977 74.5334 8.65057 74.9084 9.73011C75.2834 10.8097 75.4709 12.1449 75.4709 13.7358C75.4766 15.2358 75.3175 16.5767 74.9936 17.7585C74.6754 18.9347 74.218 19.929 73.6214 20.7415C73.0249 21.554 72.3061 22.1733 71.4652 22.5994C70.6243 23.0256 69.6783 23.2386 68.6271 23.2386C67.5249 23.2386 66.5476 23.0227 65.6953 22.5909C64.8487 22.1591 64.1641 21.5682 63.6413 20.8182C63.1186 20.0682 62.7976 19.2102 62.6783 18.2443H65.7891C65.9482 18.9375 66.272 19.4886 66.7607 19.8977C67.255 20.3011 67.8771 20.5028 68.6271 20.5028C69.8374 20.5028 70.7692 19.9773 71.4226 18.9261C72.076 17.875 72.4027 16.4148 72.4027 14.5455H72.2834C72.005 15.0455 71.6442 15.4773 71.201 15.8409C70.7578 16.1989 70.255 16.4744 69.6925 16.6676C69.1357 16.8608 68.5447 16.9574 67.9197 16.9574C66.897 16.9574 65.9766 16.7131 65.1584 16.2244C64.3459 15.7358 63.701 15.0653 63.2237 14.2131C62.7521 13.3608 62.5135 12.3864 62.5078 11.2898C62.5078 10.1534 62.7692 9.13352 63.2919 8.23011C63.8203 7.32102 64.5561 6.60511 65.4993 6.08239C66.4425 5.55398 67.5447 5.29545 68.8061 5.30682ZM68.8146 7.86364C68.201 7.86364 67.647 8.0142 67.1527 8.31534C66.6641 8.6108 66.2777 9.0142 65.9936 9.52557C65.7152 10.0312 65.576 10.5966 65.576 11.2216C65.5817 11.8409 65.7209 12.4034 65.9936 12.9091C66.272 13.4148 66.6499 13.8153 67.1271 14.1108C67.6101 14.4062 68.1612 14.554 68.7805 14.554C69.2408 14.554 69.6697 14.4659 70.0675 14.2898C70.4652 14.1136 70.8118 13.8693 71.1072 13.5568C71.4084 13.2386 71.6413 12.8778 71.8061 12.4744C71.9766 12.071 72.0589 11.6449 72.0533 11.196C72.0533 10.5994 71.9112 10.0483 71.6271 9.54261C71.3487 9.03693 70.9652 8.63068 70.4766 8.32386C69.9936 8.01705 69.4396 7.86364 68.8146 7.86364Z" fill="#454545"/>
<g clip-path="url(#clip0_177_43)">
<path d="M1.3268 15.4003L4.8868 18.0003L3.5348 22.1873C3.31631 22.8367 3.31354 23.5393 3.52691 24.1904C3.74027 24.8415 4.15834 25.4062 4.7188 25.8003C5.26965 26.2071 5.93719 26.425 6.62195 26.4216C7.30671 26.4182 7.97204 26.1936 8.5188 25.7813L11.9998 23.2193L15.4818 25.7783C16.0317 26.1828 16.6956 26.4024 17.3782 26.4058C18.0607 26.4091 18.7268 26.1959 19.2806 25.7968C19.8343 25.3977 20.2473 24.8333 20.4601 24.1848C20.6729 23.5362 20.6745 22.8369 20.4648 22.1873L19.1128 18.0003L22.6728 15.4003C23.2219 14.9988 23.6302 14.4341 23.8391 13.7867C24.0481 13.1393 24.0472 12.4425 23.8365 11.7957C23.6258 11.1489 23.216 10.5852 22.6658 10.1852C22.1156 9.78519 21.4531 9.56927 20.7728 9.56831H16.3998L15.0728 5.43231C14.8641 4.78126 14.4541 4.21332 13.9018 3.81037C13.3495 3.40742 12.6835 3.19029 11.9998 3.19029C11.3161 3.19029 10.6501 3.40742 10.0978 3.81037C9.54553 4.21332 9.13548 4.78126 8.9268 5.43231L7.5998 9.56831H3.2308C2.55054 9.56927 1.88799 9.78519 1.33778 10.1852C0.787564 10.5852 0.377837 11.1489 0.167118 11.7957C-0.0436018 12.4425 -0.0445344 13.1393 0.164453 13.7867C0.37344 14.4341 0.781657 14.9988 1.3308 15.4003H1.3268Z" fill="#FFE605"/>
</g>
<defs>
<clipPath id="clip0_177_43">
<rect width="24" height="24" fill="white" transform="translate(0 3)"/>
</clipPath>
</defs>
</svg>
